<?xml version="1.0" encoding="iso-8859-1"?>
<!-- Uploaded to: SVG Repo, www.svgrepo.com, Generator: SVG Repo Mixer Tools -->
<!DOCTYPE svg PUBLIC "-//W3C//DTD SVG 1.1//EN" "http://www.w3.org/Graphics/SVG/1.1/DTD/svg11.dtd">
<svg fill="#000000" version="1.1" id="Capa_1" xmlns="http://www.w3.org/2000/svg" xmlns:xlink="http://www.w3.org/1999/xlink" 
	 width="800px" height="800px" viewBox="0 0 374.691 374.691"
	 xml:space="preserve">
<g>
	<g>
		<path d="M372.534,350.458V192.813c0-9.707-5.718-22.993-12.766-29.671L217.158,8.421c-8.871-9.623-24.688-11.25-35.289-3.58
			C147.781,29.482,80.33,78.383,80.33,78.383C70.812,91.647,76.334,102.4,92.662,102.4h36.962L37.591,226.5
			c-9.724,13.116-4.377,23.749,11.951,23.749h61.606L8.749,353.673c-11.494,11.608-7.569,21.018,8.759,21.018h193.436
			c0-0.138,93.003-0.366,137.902-0.478C361.932,374.183,372.534,363.549,372.534,350.458z M199.776,272.182h-43.787v-44.443h43.787
			V272.182z M199.776,207.138h-43.787v-43.143h43.787V207.138z M264.181,272.182h-43.792v-44.443h43.792V272.182z M264.181,207.138
			h-43.792v-43.143h43.792V207.138z"/>
	</g>
</g>
</svg>