<?xml version="1.0" encoding="iso-8859-1"?>
<!-- Uploaded to: SVG Repo, www.svgrepo.com, Generator: SVG Repo Mixer Tools -->
<!DOCTYPE svg PUBLIC "-//W3C//DTD SVG 1.1//EN" "http://www.w3.org/Graphics/SVG/1.1/DTD/svg11.dtd">
<svg fill="#d5d5d6" version="1.1" id="Capa_1" xmlns="http://www.w3.org/2000/svg" xmlns:xlink="http://www.w3.org/1999/xlink" 
	 width="800px" height="800px" viewBox="0 0 51.174 51.175"
	 xml:space="preserve">
<g>
	<g>
		<path d="M21.321,47.506c0.951,1.186,2.175,3.527,3.943,3.662c1.558,0.118,2.485-1.267,3.315-2.301
			c2.321-2.889,4.644-5.776,6.964-8.666c1.197-1.491,9.302-9.061,5.27-10.677c-0.082-0.088-0.241-0.146-0.516-0.146
			c-2.516,0-6.419,1.165-6.419-2.069c0-4.305,3.634-5.747,4.778-9.783c2.748-9.68-4.489-18.002-14.295-17.505
			c-8.388,0.425-13.598,8.76-12.26,16.511c0.415,2.404,1.901,4.536,3.471,6.313c1.751,1.983,1.783,2.952,1.783,5.466
			c0,1.677-0.964,1.067-2.692,1.067c-1.07,0-2.474-0.252-3.526,0.053c-5.159,1.486,1.716,7.537,3.255,9.452
			C16.702,41.758,19.011,44.633,21.321,47.506z M18.607,41.108c0.833-1.581,1.68-3.155,2.555-4.717
			c4.075-6.161,8.126-12.337,12.21-18.494c0.307-0.461,0.377-0.423,0.152,0.081c-0.471,1.052-0.964,2.092-1.483,3.119
			c-3.623,6.131-7.362,12.188-11.485,17.998c-0.567,0.771-1.14,1.539-1.712,2.306C18.766,41.304,18.687,41.206,18.607,41.108z
			 M33.025,40.112c-0.177,0.486-0.354,0.972-0.531,1.458c-0.124,0.155-0.249,0.311-0.374,0.466
			c-1.708,2.127-3.417,4.253-5.125,6.379c-0.444,0.554-0.73,0.911-0.998,1.053c0.37-0.719,0.741-1.437,1.11-2.155
			c0.253-0.491,0.757-1.222,1.121-1.638c1.598-1.831,3.108-3.745,4.55-5.696C33.105,39.534,33.214,39.594,33.025,40.112z
			 M37.575,33.442c0.188-0.52,0.58-1.317,0.872-1.786c0.133-0.213,0.265-0.427,0.396-0.641c0.081-0.131,0.113-0.251,0.12-0.362
			c0.17-0.006,0.338-0.009,0.506-0.011c0.427,0.15,0.624,0.4,0.663,0.708c-0.015,0.025-0.027,0.045-0.04,0.071
			c-0.336,0.697-0.671,1.396-1.008,2.095c-0.522,0.64-1.073,1.186-1.237,1.39c-0.486,0.605-0.974,1.211-1.459,1.816
			C36.783,35.63,37.181,34.537,37.575,33.442z M35.604,31.118c0.054-0.097,0.106-0.193,0.161-0.291
			c0.213-0.003,0.431-0.01,0.65-0.021c-0.067,0.096-0.133,0.193-0.171,0.301c-0.1,0.282-0.197,0.562-0.298,0.845
			c-0.185,0.521-0.571,1.322-0.867,1.789c-1.114,1.755-2.282,3.519-3.516,5.254c-0.319,0.451-0.376,0.416-0.121-0.074
			C32.805,36.311,34.181,33.704,35.604,31.118z M35.574,20.084c-2.004,3.687-3.64,3.248-3.64,7.416c0,1.806,0.666,2.658,1.688,3.043
			c-0.195,0.142-0.372,0.305-0.479,0.489c-3.161,5.489-6.269,11.009-9.329,16.557c-1.29-1.606-2.581-3.213-3.871-4.819
			c0.915-1.209,1.817-2.427,2.695-3.661c4.343-5.901,8.5-11.95,11.76-18.449c0.861-1.46,1.714-2.926,2.567-4.393
			C36.681,17.601,36.219,18.897,35.574,20.084z M32.925,5.98c0.184-0.307,0.364-0.615,0.547-0.924
			c0.091-0.154,0.13-0.329,0.146-0.506c0.078,0.07,0.153,0.142,0.229,0.214c-0.132,0.071-0.257,0.168-0.353,0.321
			c-0.186,0.3-0.374,0.601-0.56,0.901C32.645,6.455,32.642,6.454,32.925,5.98z M31.421,3.023c0.319,0.172,0.641,0.347,0.946,0.549
			c-0.121,0.082-0.23,0.186-0.313,0.33C31,5.759,29.899,7.592,28.772,9.408c-0.443-0.295-0.934-0.526-1.445-0.69
			c0.002-0.003,0.006-0.005,0.008-0.008c1.283-1.791,2.588-3.565,3.907-5.328C31.328,3.267,31.386,3.145,31.421,3.023z
			 M30.989,9.149c-0.306,0.499-0.611,0.999-0.916,1.498c-0.007-0.009-0.013-0.018-0.02-0.026c0.31-0.491,0.621-0.981,0.93-1.474
			C31.275,8.678,31.277,8.678,30.989,9.149z M19.632,27.409c1.234-2.102,2.48-4.194,3.754-6.268c0.497-0.81,1-1.616,1.506-2.42
			c0.083-0.132,0.155-0.252,0.22-0.363c0.033,0.003,0.066,0.008,0.1,0.01c0.058,0.003,0.117-0.001,0.178-0.009
			c0.013-0.001,0.02,0.003,0.034,0.002c-0.115,0.109-0.214,0.224-0.286,0.343c-1.854,3.031-3.711,6.059-5.567,9.087
			C19.595,27.666,19.614,27.537,19.632,27.409z M19.335,24.37c-0.101-0.243-0.216-0.465-0.357-0.646
			c-0.328-0.422-0.646-0.831-0.957-1.234c1.124-1.766,2.267-3.521,3.428-5.263c0.08-0.121,0.133-0.26,0.166-0.407
			c0.53,0.508,1.178,0.907,1.878,1.174c-0.174,0.102-0.335,0.231-0.447,0.406C21.784,20.377,20.538,22.363,19.335,24.37z
			 M24.987,9.737c4.408-0.72,5.441,6.947,0.818,7.352C21.887,16.754,20.655,10.445,24.987,9.737z M28.863,1.986
			c0.384,0.11,0.765,0.231,1.139,0.376c-0.091,0.071-0.179,0.146-0.249,0.239c-0.947,1.252-1.894,2.505-2.824,3.771
			c-0.327,0.445-0.385,0.409-0.134-0.083c0.679-1.331,1.345-2.668,1.994-4.012C28.834,2.181,28.85,2.083,28.863,1.986z
			 M16.548,5.203c-0.669,1.192-1.343,2.381-2.016,3.57C14.992,7.386,15.681,6.195,16.548,5.203z M16.783,20.825
			c-1.141-1.599-2.047-3.155-2.544-4.88c2.71-4.801,5.455-9.577,8.427-14.189c0.006-0.008,0.005-0.015,0.01-0.022
			c1.417-0.289,2.896-0.341,4.357-0.14c-0.058,0.073-0.123,0.143-0.163,0.227c-1.161,2.429-2.371,4.834-3.618,7.221
			c-1.526,0.778-2.675,2.251-2.959,3.994c-0.084,0.517-0.067,1.008,0.022,1.472C19.157,16.621,17.975,18.726,16.783,20.825z
			 M17.005,31.919c0.284-0.493,0.574-0.982,0.86-1.477c0.038-0.018,0.076-0.034,0.113-0.054c-0.316,0.515-0.631,1.03-0.947,1.546
			C16.742,32.405,16.729,32.398,17.005,31.919z M27.82,17.756c1.554-0.741,2.712-2.118,3.015-3.971
			c0.059-0.351,0.067-0.69,0.041-1.018c1.292-2.109,2.578-4.221,3.875-6.327c0.094-0.151,0.143-0.327,0.171-0.508
			c0.165,0.215,0.313,0.44,0.463,0.666C35.288,6.663,35.2,6.757,35.13,6.893c-3.159,6.192-6.365,12.358-9.729,18.432
			c-1.025,1.83-2.049,3.651-3.106,5.426c-0.92,1.55-1.822,3.109-2.713,4.676c-0.402,0.672-0.805,1.345-1.213,2.014
			c-0.408,0.616-0.818,1.229-1.229,1.843c-0.479-0.598-0.96-1.195-1.44-1.793C19.766,30.929,23.792,24.342,27.82,17.756z
			 M11.98,32.858c0.349-0.609,0.697-1.217,1.047-1.825c0.092-0.16,0.11-0.302,0.097-0.431c0.886-0.056,1.872-0.034,2.645-0.005
			c-0.123,0.13-0.241,0.272-0.335,0.435c-0.686,1.189-1.367,2.383-2.045,3.579C12.918,34.026,12.45,33.442,11.98,32.858z"/>
	</g>
</g>
</svg>